<?xml version="1.0" encoding="UTF-8"?>
<svg xmlns="http://www.w3.org/2000/svg" xmlns:xlink="http://www.w3.org/1999/xlink" viewBox="0 0 96 96" width="96px" height="96px">
<g id="surface26877155">
<path style=" stroke:none;fill-rule:nonzero;fill:rgb(90.588236%,29.803923%,23.529412%);fill-opacity:1;" d="M 47.863281 3.84375 C 47.652344 3.84375 47.441406 3.878906 47.238281 3.949219 L 7.050781 17.9375 C 6.199219 18.230469 5.664062 19.082031 5.773438 19.980469 L 12.128906 72.054688 C 12.203125 72.671875 12.566406 73.214844 13.113281 73.511719 L 47 91.925781 C 47.28125 92.082031 47.597656 92.160156 47.914062 92.160156 C 48.230469 92.160156 48.550781 92.082031 48.835938 91.921875 L 82.894531 73.257812 C 83.433594 72.957031 83.804688 72.417969 83.875 71.804688 L 90.226562 19.734375 C 90.335938 18.832031 89.796875 17.972656 88.933594 17.679688 L 48.488281 3.941406 C 48.285156 3.875 48.074219 3.84375 47.863281 3.84375 Z M 48 13.441406 L 72.960938 67.199219 L 64.441406 67.199219 L 59.101562 55.695312 L 36.898438 55.695312 L 31.558594 67.199219 L 23.039062 67.199219 Z M 48 31.679688 L 40.472656 48 L 55.527344 48 Z M 48 31.679688 "/>
</g>
</svg>
